<svg width="17" height="20" viewBox="0 0 17 20" fill="none" xmlns="http://www.w3.org/2000/svg">
<path fill-rule="evenodd" clip-rule="evenodd" d="M16.4817 14.0824C15.8054 13.8851 15.1978 13.4243 14.6704 12.7001C14.1431 11.9761 13.8794 11.1534 13.8794 10.2538C13.8794 9.42014 14.1316 8.66305 14.6246 7.9829C14.8997 7.59906 15.3354 7.17123 15.9315 6.68844C15.5417 6.22768 15.1404 5.85477 14.7392 5.59152C14.0284 5.11968 13.2145 4.87845 12.2973 4.87845C11.7356 4.87845 11.0707 5.00999 10.3141 5.25138C9.55745 5.50368 9.00713 5.6243 8.67466 5.6243C8.41102 5.6243 7.88368 5.51461 7.09265 5.29521C6.29011 5.07583 5.62525 4.96614 5.0635 4.96614C3.74512 4.96614 2.66747 5.49276 1.80766 6.54582C0.947852 7.60998 0.512207 8.97029 0.512207 10.6487C0.512207 12.4478 1.08544 14.28 2.19747 16.1667C3.3324 18.0536 4.46733 19.0081 5.64816 19.0081C6.02649 19.0081 6.5309 18.8875 7.16142 18.6352C7.78049 18.3938 8.33077 18.273 8.78934 18.273C9.25934 18.273 9.844 18.3827 10.5204 18.6241C11.2082 18.8546 11.7356 18.9752 12.1254 18.9752C13.0998 18.9752 14.0858 18.2621 15.0717 16.825C15.7366 15.8706 16.1952 14.949 16.4817 14.0824ZM12.1712 1.21431C12.1712 1.13755 12.1598 1.07168 12.1598 0.994914C12.1483 0.929072 12.1254 0.852304 12.1024 0.75354C10.7726 1.04969 9.80965 1.58739 9.23641 2.37724C8.66323 3.16708 8.36518 4.11046 8.34225 5.19645C8.88102 5.1526 9.27082 5.08676 9.53447 5.00999C9.94718 4.87845 10.3599 4.61506 10.7726 4.22015C11.2541 3.75937 11.6095 3.25477 11.8388 2.7063C12.0566 2.16876 12.1712 1.66416 12.1712 1.21431Z" fill="white"/>
</svg>
